<svg width="400" height="225" viewBox="0 0 400 225" fill="none" xmlns="http://www.w3.org/2000/svg">
<g clip-path="url(#clip0_4744_70530)">
<path d="M323.93 24.55C354.47 24.55 381.79 43.79 400 74.04V0H271.73C278.16 10.07 283.32 21.74 286.86 34.53C298.31 28.09 310.83 24.54 323.93 24.54V24.55Z" fill="#FFDA66"/>
<path d="M98.64 225H235.21C230.92 213.09 227.82 200.2 226.14 186.63C221.24 187.91 216.19 188.59 211.03 188.59C166.15 188.59 129.77 137.87 129.77 75.3002C129.77 46.3902 137.54 20.0102 150.33 -0.00976562H0V99.7802C49.44 106.41 89.44 158.07 98.64 224.99V225Z" fill="#FFDA66"/>
<path d="M98.64 225C89.44 158.08 49.44 106.41 0 99.79V225H98.64Z" fill="#FFE28F"/>
<path d="M211.03 188.6C216.2 188.6 221.25 187.92 226.14 186.64C225.19 178.94 224.68 171.02 224.68 162.93C224.68 104.78 250.41 55.0198 286.86 34.5398C283.32 21.7398 278.16 10.0698 271.73 0.00976562H150.32C137.54 20.0298 129.76 46.3998 129.76 75.3198C129.76 137.89 166.14 188.61 211.02 188.61L211.03 188.6Z" fill="#FFE28F"/>
<path d="M400 74.0398C381.79 43.7898 354.48 24.5498 323.93 24.5498C310.82 24.5498 298.31 28.0998 286.86 34.5398C290.36 47.1898 292.29 60.9398 292.29 75.3098C292.29 130.68 263.8 176.76 226.14 186.64C227.82 200.21 230.92 213.1 235.21 225.01H400V74.0398Z" fill="#FFC85A"/>
<path d="M224.68 162.92C224.68 171 225.18 178.93 226.14 186.63C263.8 176.75 292.29 130.67 292.29 75.2998C292.29 60.9298 290.37 47.1798 286.86 34.5298C250.41 55.0098 224.68 104.77 224.68 162.92Z" fill="#FFDA66"/>
<path d="M33.1995 122.01C36.0895 122.01 38.6595 123.43 40.1995 125.89L38.2895 127.23C37.0095 125.31 35.2995 124.35 33.1995 124.35C29.9295 124.35 27.5995 126.81 27.5995 130.21C27.5995 133.61 29.9795 136.07 33.2595 136.07C35.3695 136.07 37.1695 135.09 38.4195 133.26L40.2595 134.54C38.7595 136.98 36.1795 138.41 33.2595 138.41C28.6395 138.41 25.0195 134.87 25.0195 130.22C25.0195 125.57 28.5895 122.03 33.1995 122.03V122.01Z" fill="#3A3223"/>
<path d="M42.1699 138.16V126.91H44.4999V128.45C45.1299 127.22 46.1999 126.68 47.4299 126.68C48.3099 126.68 48.9799 126.96 48.9799 126.96L48.7299 129.09C48.5999 129.04 48.0999 128.83 47.3599 128.83C46.1199 128.83 44.4999 129.49 44.4999 132.03V138.16H42.1699Z" fill="#3A3223"/>
<path d="M49.1995 126.91H51.7495L55.2495 135.77L58.7295 126.91H61.2795L55.8895 139.59C54.9895 141.68 54.0095 143.08 51.2695 143.08C50.2695 143.08 49.6095 142.78 49.4095 142.67L49.6595 140.75C49.9795 140.89 50.5895 141.04 51.1695 141.04C52.6795 141.04 53.2895 140.28 53.7895 138.97L54.0395 138.33L49.1895 126.92L49.1995 126.91Z" fill="#3A3223"/>
<path d="M62.8691 126.91H65.1891V128.45C66.0191 127.38 67.2891 126.68 69.1991 126.68C72.3991 126.68 74.8491 129.14 74.8491 132.6C74.8491 136.06 72.3991 138.4 69.1991 138.4C67.2891 138.4 66.0191 137.7 65.1891 136.63V142.85H62.8691V126.91ZM68.9191 136.31C71.0891 136.31 72.5291 134.67 72.5291 132.6C72.5291 130.53 71.0891 128.77 68.9191 128.77C66.7491 128.77 65.2091 130.53 65.2091 132.6C65.2091 134.67 66.7691 136.31 68.9191 136.31Z" fill="#3A3223"/>
<path d="M75.6191 128.88V126.91H77.6591V123.3H79.9191V126.91H83.4891V128.88H79.9391V134.5C79.9391 135.7 80.6291 136.29 81.7791 136.29C82.3191 136.29 83.0591 136.14 83.6091 135.9L83.9091 137.89C83.3491 138.18 82.3491 138.38 81.4491 138.38C79.0891 138.38 77.6191 137.06 77.6191 134.77V128.86H75.6191V128.88Z" fill="#3A3223"/>
<path d="M84.5293 132.54C84.5293 129.25 87.0793 126.68 90.5093 126.68C93.9393 126.68 96.4893 129.25 96.4893 132.54C96.4893 135.83 93.9393 138.4 90.5093 138.4C87.0793 138.4 84.5293 135.83 84.5293 132.54ZM90.5093 136.22C92.6293 136.22 94.1693 134.61 94.1693 132.54C94.1693 130.47 92.6293 128.86 90.5093 128.86C88.3893 128.86 86.8493 130.47 86.8493 132.54C86.8493 134.61 88.3893 136.22 90.5093 136.22Z" fill="#3A3223"/>
<path d="M97.9697 132.48C97.9697 129.02 100.42 126.68 103.62 126.68C105.53 126.68 106.8 127.38 107.63 128.45V126.91H109.95V137.28C109.95 140.82 107.55 143.08 103.76 143.08C101.7 143.08 99.7897 142.21 98.4997 140.67L100.02 139.16C101.09 140.32 102.29 140.98 103.81 140.98C106.12 140.98 107.63 139.63 107.63 137.58V136.63C106.84 137.65 105.53 138.4 103.62 138.4C100.42 138.4 97.9697 135.94 97.9697 132.48ZM100.29 132.48C100.29 134.55 101.73 136.31 103.9 136.31C106.07 136.31 107.61 134.55 107.61 132.48C107.61 130.41 106.05 128.77 103.9 128.77C101.75 128.77 100.29 130.41 100.29 132.48Z" fill="#3A3223"/>
<path d="M112.979 138.16V126.91H115.309V128.45C115.939 127.22 117.009 126.68 118.239 126.68C119.119 126.68 119.789 126.96 119.789 126.96L119.539 129.09C119.409 129.04 118.909 128.83 118.169 128.83C116.929 128.83 115.309 129.49 115.309 132.03V138.16H112.979Z" fill="#3A3223"/>
<path d="M125.38 131.4C126.73 131.4 127.7 131.68 128.22 131.93V131.32C128.22 129.91 127.08 128.86 125.34 128.86C123.95 128.86 122.79 129.66 122.12 130.42L120.66 128.97C121.53 127.87 123.33 126.68 125.38 126.68C128.54 126.68 130.55 128.39 130.55 131.12V138.16H128.28V136.71C127.59 137.76 126.29 138.4 124.78 138.4C122.34 138.4 120.43 137.17 120.43 134.97C120.43 132.77 122.45 131.41 125.4 131.41L125.38 131.4ZM125.1 136.5C126.93 136.5 128.22 135.25 128.22 133.71C127.74 133.46 126.66 133.17 125.44 133.17C123.98 133.17 122.76 133.66 122.76 134.88C122.76 135.9 123.78 136.5 125.1 136.5Z" fill="#3A3223"/>
<path d="M133.47 126.91H135.79V128.45C136.62 127.38 137.89 126.68 139.8 126.68C143 126.68 145.45 129.14 145.45 132.6C145.45 136.06 143 138.4 139.8 138.4C137.89 138.4 136.62 137.7 135.79 136.63V142.85H133.47V126.91ZM139.52 136.31C141.69 136.31 143.13 134.67 143.13 132.6C143.13 130.53 141.69 128.77 139.52 128.77C137.35 128.77 135.81 130.53 135.81 132.6C135.81 134.67 137.37 136.31 139.52 136.31Z" fill="#3A3223"/>
<path d="M147.72 138.16V121.66H150.05V128.33C150.43 127.76 151.49 126.68 153.51 126.68C156.55 126.68 158.17 128.6 158.17 131.33V138.16H155.85V131.82C155.85 129.96 154.83 128.88 153.14 128.88C151.45 128.88 150.03 129.96 150.03 131.82V138.16H147.71H147.72Z" fill="#3A3223"/>
<path d="M159.32 126.91H161.87L165.37 135.77L168.85 126.91H171.4L166.01 139.59C165.11 141.68 164.13 143.08 161.39 143.08C160.39 143.08 159.73 142.78 159.53 142.67L159.78 140.75C160.1 140.89 160.71 141.04 161.29 141.04C162.8 141.04 163.41 140.28 163.91 138.97L164.16 138.33L159.31 126.92L159.32 126.91Z" fill="#3A3223"/>
<path d="M46.2997 100.34C51.4746 100.34 55.6697 94.4931 55.6697 87.2802C55.6697 80.0674 51.4746 74.2202 46.2997 74.2202C41.1248 74.2202 36.9297 80.0674 36.9297 87.2802C36.9297 94.4931 41.1248 100.34 46.2997 100.34Z" fill="#FFC452"/>
<path d="M34.91 100.34C40.0849 100.34 44.28 94.4931 44.28 87.2802C44.28 80.0674 40.0849 74.2202 34.91 74.2202C29.7351 74.2202 25.54 80.0674 25.54 87.2802C25.54 94.4931 29.7351 100.34 34.91 100.34Z" fill="white"/>
</g>
<defs>
<clipPath id="clip0_4744_70530">
<rect width="400" height="225" fill="white"/>
</clipPath>
</defs>
</svg>
