<svg width="400" height="226" viewBox="0 0 400 226" fill="none" xmlns="http://www.w3.org/2000/svg">
<g clip-path="url(#clip0_4744_70535)">
<mask id="mask0_4744_70535" style="mask-type:luminance" maskUnits="userSpaceOnUse" x="0" y="0" width="400" height="226">
<path d="M400 0.120117H0V225.12H400V0.120117Z" fill="white"/>
</mask>
<g mask="url(#mask0_4744_70535)">
<path d="M400 0.120117H0V225.12H400V0.120117Z" fill="#FF6CC4"/>
<path d="M131.67 0L0 225H136.66L200 116.77L131.67 0Z" fill="#FF51AF"/>
<path d="M268.33 0L200 116.77L263.34 225H400L268.33 0Z" fill="#F73CA8"/>
<path d="M136.66 225H263.34L200 116.77L136.66 225Z" fill="#EF2091"/>
<path d="M268.33 0L400 225V0.12L268.33 0Z" fill="#FF88D5"/>
<path d="M131.77 0L0.0996094 225V0.12L131.77 0Z" fill="#F73CA8"/>
</g>
<path d="M26.9203 115.06C27.6803 116.62 29.1503 117.73 31.3003 117.73C33.1403 117.73 34.5703 116.85 34.5703 115.46C34.5703 114.07 33.3003 113.54 30.9603 112.79C27.9403 111.82 25.5603 110.81 25.5803 108C25.6003 105.09 28.3503 103.57 30.9903 103.57C33.9303 103.57 35.8103 105.15 36.7003 106.85L34.7903 108.19C34.1103 106.96 32.8203 105.81 30.9903 105.81C29.4803 105.81 28.0503 106.58 28.0503 107.99C28.0503 109.4 29.3503 109.77 31.6003 110.53C34.5603 111.54 37.0403 112.36 37.0403 115.44C37.0403 118.52 34.0803 119.95 31.3403 119.95C28.2203 119.95 25.9803 118.36 25.0703 116.34L26.9103 115.06H26.9203Z" fill="white"/>
<path d="M37.6799 108.46H40.2299L43.7299 117.32L47.2099 108.46H49.7599L44.3699 121.14C43.4699 123.23 42.4899 124.63 39.7499 124.63C38.7499 124.63 38.0899 124.33 37.8899 124.22L38.1399 122.3C38.4599 122.44 39.0699 122.59 39.6499 122.59C41.1599 122.59 41.7699 121.83 42.2699 120.52L42.5199 119.88L37.6699 108.47L37.6799 108.46Z" fill="white"/>
<path d="M51.9905 115.95C52.6205 117.05 53.7005 117.81 55.1305 117.81C56.3405 117.81 57.2405 117.33 57.2405 116.57C57.2405 115.74 56.5505 115.48 54.9005 115.11C52.4905 114.57 50.7605 113.81 50.7605 111.58C50.7605 109.54 52.6205 108.23 54.9205 108.23C57.0205 108.23 58.6205 109.32 59.3705 110.55L57.8105 111.89C57.2005 111.02 56.2405 110.35 54.9205 110.35C53.8105 110.35 53.0605 110.82 53.0605 111.55C53.0605 112.41 53.8905 112.64 55.5405 113.04C57.9905 113.64 59.5805 114.43 59.5805 116.58C59.5805 118.73 57.5205 119.96 55.1305 119.96C52.9405 119.96 51.1305 118.95 50.2705 117.36L51.9905 115.97V115.95Z" fill="white"/>
<path d="M60.4805 110.43V108.46H62.5205V104.85H64.7805V108.46H68.3505V110.43H64.8005V116.05C64.8005 117.25 65.4905 117.84 66.6405 117.84C67.1805 117.84 67.9205 117.69 68.4705 117.45L68.7705 119.44C68.2105 119.73 67.2105 119.93 66.3105 119.93C63.9505 119.93 62.4805 118.61 62.4805 116.32V110.41H60.4805V110.43Z" fill="white"/>
<path d="M75.2104 108.23C78.4904 108.23 80.6204 110.67 80.6204 113.68C80.6204 114.03 80.6004 114.39 80.5304 114.76H71.8004C71.9104 116.45 73.3504 117.77 75.2904 117.77C76.7004 117.77 77.8204 117.17 78.6704 115.85L80.3804 117.09C79.3404 118.97 77.2904 119.95 75.2904 119.95C71.8904 119.95 69.4004 117.44 69.4004 114.1C69.4004 110.76 71.8004 108.23 75.2104 108.23ZM78.2704 113.02C78.1304 111.44 76.8104 110.32 75.1904 110.32C73.4704 110.32 72.1504 111.43 71.8604 113.02H78.2704Z" fill="white"/>
<path d="M82.9004 108.46H85.2304V109.88C85.5904 109.31 86.6604 108.23 88.6404 108.23C90.6204 108.23 91.9304 109.03 92.6504 110.33C93.3304 109.23 94.7404 108.23 96.6704 108.23C99.6704 108.23 101.29 110.15 101.29 112.88V119.71H98.9604V113.37C98.9604 111.51 97.9604 110.43 96.3104 110.43C94.6604 110.43 93.3204 111.46 93.2604 113.23V119.71H90.9304V113.37C90.9304 111.51 89.9304 110.43 88.2804 110.43C86.6304 110.43 85.2304 111.51 85.2304 113.37V119.71H82.9004V108.46Z" fill="white"/>
<path d="M28.5205 133.4V140.08H37.1405V133.4H39.6005V149.31H37.1405V142.3H28.5205V149.31H26.0605V133.4H28.5205Z" fill="white"/>
<path d="M47.1902 142.55C48.5402 142.55 49.5102 142.83 50.0302 143.08V142.47C50.0302 141.06 48.8902 140.01 47.1502 140.01C45.7602 140.01 44.6002 140.81 43.9302 141.57L42.4702 140.12C43.3402 139.02 45.1402 137.83 47.1902 137.83C50.3502 137.83 52.3602 139.54 52.3602 142.27V149.31H50.0902V147.86C49.4002 148.91 48.1002 149.55 46.5902 149.55C44.1502 149.55 42.2402 148.32 42.2402 146.12C42.2402 143.92 44.2602 142.56 47.2102 142.56L47.1902 142.55ZM46.9102 147.65C48.7402 147.65 50.0302 146.4 50.0302 144.86C49.5502 144.61 48.4702 144.32 47.2502 144.32C45.7902 144.32 44.5702 144.81 44.5702 146.03C44.5702 147.05 45.5902 147.65 46.9102 147.65Z" fill="white"/>
<path d="M54.4502 143.68C54.4502 140.39 57.1102 137.83 60.5102 137.83C62.7202 137.83 64.5802 138.99 65.6302 140.91L63.8402 142.13C63.1402 140.83 61.8702 140.01 60.4602 140.01C58.2902 140.01 56.7902 141.62 56.7902 143.68C56.7902 145.74 58.3302 147.37 60.4102 147.37C61.8702 147.37 63.0902 146.6 63.8702 145.26L65.6202 146.49C64.5902 148.34 62.6902 149.55 60.4202 149.55C57.0102 149.55 54.4602 146.96 54.4602 143.68H54.4502Z" fill="white"/>
<path d="M69.9999 132.81V142.95L74.9099 138.06H78.0999L73.2599 142.77L78.2899 149.31H75.3499L71.5799 144.4L70.0099 145.97V149.31H67.6699V132.81H70.0099H69.9999Z" fill="white"/>
<path d="M80.8099 132.86C81.6499 132.86 82.2499 133.45 82.2499 134.29C82.2499 135.13 81.6499 135.72 80.8099 135.72C79.9699 135.72 79.3799 135.13 79.3799 134.29C79.3799 133.45 79.9699 132.86 80.8099 132.86ZM79.6499 149.31V138.06H81.9699V149.31H79.6499Z" fill="white"/>
<path d="M85.0608 149.31V138.06H87.3908V139.48C87.7708 138.91 88.8308 137.83 90.8508 137.83C93.9408 137.83 95.5708 139.75 95.5708 142.48V149.31H93.2508V142.97C93.2508 141.11 92.2308 140.03 90.4808 140.03C88.7308 140.03 87.3708 141.11 87.3708 142.97V149.31H85.0508H85.0608Z" fill="white"/>
<path d="M97.7402 143.63C97.7402 140.17 100.19 137.83 103.39 137.83C105.3 137.83 106.57 138.53 107.4 139.6V138.06H109.72V148.43C109.72 151.97 107.32 154.23 103.53 154.23C101.47 154.23 99.5602 153.36 98.2702 151.82L99.7902 150.31C100.86 151.47 102.06 152.13 103.58 152.13C105.89 152.13 107.4 150.78 107.4 148.73V147.78C106.61 148.8 105.3 149.55 103.39 149.55C100.19 149.55 97.7402 147.09 97.7402 143.63ZM100.06 143.63C100.06 145.7 101.5 147.46 103.67 147.46C105.84 147.46 107.38 145.7 107.38 143.63C107.38 141.56 105.82 139.92 103.67 139.92C101.52 139.92 100.06 141.56 100.06 143.63Z" fill="white"/>
<path d="M37.4697 84.6199H48.2197V65.8799L37.4697 84.6199Z" fill="#C90984"/>
<path d="M48.2197 65.8799V84.6199H58.9697L48.2197 65.8799Z" fill="#C90984"/>
<path d="M36.8498 65.8799L26.0898 84.6199H47.5998L36.8498 65.8799Z" fill="white"/>
</g>
<defs>
<clipPath id="clip0_4744_70535">
<rect width="400" height="225.12" fill="white"/>
</clipPath>
</defs>
</svg>
