<svg width="400" height="225" viewBox="0 0 400 225" fill="none" xmlns="http://www.w3.org/2000/svg">
<g clip-path="url(#clip0_4744_70525)">
<path d="M387.77 0H297.35L342.56 75.23L387.77 0Z" fill="#6F38F4"/>
<path d="M252.56 224.98L252.57 225H400V170.8L342.56 75.23L252.56 224.98Z" fill="#9569FF"/>
<path d="M162.56 75.23L72.5596 224.98L72.5696 225H252.56V224.98L162.56 75.23Z" fill="#6F38F4"/>
<path d="M207.77 0H117.35L162.56 75.23L207.77 0Z" fill="#9569FF"/>
<path d="M252.56 224.98L342.56 75.23L297.35 0H207.77L162.56 75.23L252.56 224.98Z" fill="#8246F7"/>
<path d="M0 225H72.57L72.56 224.98L162.56 75.23L117.35 0H0V225Z" fill="#8A5AFF"/>
<path d="M400 170.8V0H387.77L342.56 75.23L400 170.8Z" fill="#8A5AFF"/>
<path d="M32.9093 103.69C36.1893 103.69 38.3193 105.54 38.3193 108.52C38.3193 110.7 37.0693 112.32 35.0993 113.01L38.9593 119.6H36.0993L32.4993 113.35H28.5293V119.6H26.0693V103.7H32.9093V103.69ZM28.5293 105.9V111.15H32.7993C34.7593 111.15 35.7593 110.06 35.7593 108.51C35.7593 106.96 34.7493 105.9 32.7993 105.9H28.5293Z" fill="white"/>
<path d="M45.6899 108.11C48.9699 108.11 51.0999 110.55 51.0999 113.56C51.0999 113.91 51.0799 114.27 51.0099 114.64H42.2799C42.3899 116.33 43.8299 117.65 45.7699 117.65C47.1799 117.65 48.2999 117.05 49.1499 115.73L50.8599 116.97C49.8199 118.85 47.7699 119.83 45.7699 119.83C42.3699 119.83 39.8799 117.32 39.8799 113.98C39.8799 110.64 42.2799 108.11 45.6899 108.11ZM48.7499 112.9C48.6099 111.32 47.2899 110.2 45.6699 110.2C43.9499 110.2 42.6299 111.31 42.3399 112.9H48.7499Z" fill="white"/>
<path d="M51.75 108.34H54.25L57.57 117.32L60.89 108.34H63.39L58.96 119.59H56.19L51.76 108.34H51.75Z" fill="white"/>
<path d="M69.7592 108.11C73.0392 108.11 75.1692 110.55 75.1692 113.56C75.1692 113.91 75.1492 114.27 75.0792 114.64H66.3492C66.4592 116.33 67.8992 117.65 69.8392 117.65C71.2492 117.65 72.3692 117.05 73.2192 115.73L74.9292 116.97C73.8892 118.85 71.8392 119.83 69.8392 119.83C66.4392 119.83 63.9492 117.32 63.9492 113.98C63.9492 110.64 66.3492 108.11 69.7592 108.11ZM72.8192 112.9C72.6792 111.32 71.3592 110.2 69.7392 110.2C68.0192 110.2 66.6992 111.31 66.4092 112.9H72.8192Z" fill="white"/>
<path d="M77.4492 119.59V108.34H79.7792V109.88C80.4092 108.65 81.4792 108.11 82.7092 108.11C83.5892 108.11 84.2592 108.39 84.2592 108.39L84.0092 110.52C83.8792 110.47 83.3792 110.26 82.6392 110.26C81.3992 110.26 79.7792 110.92 79.7792 113.46V119.59H77.4492Z" fill="white"/>
<path d="M86.6292 115.83C87.2592 116.93 88.3392 117.69 89.7692 117.69C90.9792 117.69 91.8792 117.21 91.8792 116.45C91.8792 115.62 91.1892 115.36 89.5392 114.99C87.1292 114.45 85.3992 113.69 85.3992 111.46C85.3992 109.42 87.2592 108.11 89.5592 108.11C91.6592 108.11 93.2592 109.2 94.0092 110.43L92.4492 111.77C91.8392 110.9 90.8792 110.23 89.5592 110.23C88.4492 110.23 87.6992 110.7 87.6992 111.43C87.6992 112.29 88.5292 112.52 90.1792 112.92C92.6292 113.52 94.2192 114.31 94.2192 116.46C94.2192 118.61 92.1592 119.84 89.7692 119.84C87.5792 119.84 85.7692 118.83 84.9092 117.24L86.6292 115.85V115.83Z" fill="white"/>
<path d="M101.56 108.11C104.84 108.11 106.97 110.55 106.97 113.56C106.97 113.91 106.95 114.27 106.88 114.64H98.15C98.26 116.33 99.7 117.65 101.64 117.65C103.05 117.65 104.17 117.05 105.02 115.73L106.73 116.97C105.69 118.85 103.64 119.83 101.64 119.83C98.24 119.83 95.75 117.32 95.75 113.98C95.75 110.64 98.15 108.11 101.56 108.11ZM104.62 112.9C104.48 111.32 103.16 110.2 101.54 110.2C99.82 110.2 98.5 111.31 98.21 112.9H104.62Z" fill="white"/>
<path d="M26.0596 133.28H37.2196V135.52H28.5196V139.9H35.9796V142.14H28.5196V146.96H37.4596V149.2H26.0596V133.29V133.28Z" fill="white"/>
<path d="M39.7893 149.19V137.94H42.1193V139.36C42.4993 138.79 43.5593 137.71 45.5793 137.71C48.6693 137.71 50.2993 139.63 50.2993 142.36V149.19H47.9793V142.85C47.9793 140.99 46.9593 139.91 45.2093 139.91C43.4593 139.91 42.0993 140.99 42.0993 142.85V149.19H39.7793H39.7893Z" fill="white"/>
<path d="M52.4697 143.51C52.4697 140.05 54.9197 137.71 58.1197 137.71C60.0297 137.71 61.2997 138.41 62.1297 139.48V137.94H64.4497V148.31C64.4497 151.85 62.0497 154.11 58.2597 154.11C56.1997 154.11 54.2897 153.24 52.9997 151.7L54.5197 150.19C55.5897 151.35 56.7897 152.01 58.3097 152.01C60.6197 152.01 62.1297 150.66 62.1297 148.61V147.66C61.3397 148.68 60.0297 149.43 58.1197 149.43C54.9197 149.43 52.4697 146.97 52.4697 143.51ZM54.7897 143.51C54.7897 145.58 56.2297 147.34 58.3997 147.34C60.5697 147.34 62.1097 145.58 62.1097 143.51C62.1097 141.44 60.5497 139.8 58.3997 139.8C56.2497 139.8 54.7897 141.44 54.7897 143.51Z" fill="white"/>
<path d="M68.64 132.74C69.48 132.74 70.08 133.33 70.08 134.17C70.08 135.01 69.48 135.6 68.64 135.6C67.8 135.6 67.21 135.01 67.21 134.17C67.21 133.33 67.8 132.74 68.64 132.74ZM67.48 149.19V137.94H69.8V149.19H67.48Z" fill="white"/>
<path d="M72.8791 149.19V137.94H75.2091V139.36C75.5891 138.79 76.6491 137.71 78.6691 137.71C81.7591 137.71 83.3891 139.63 83.3891 142.36V149.19H81.0691V142.85C81.0691 140.99 80.0491 139.91 78.2991 139.91C76.5491 139.91 75.1891 140.99 75.1891 142.85V149.19H72.8691H72.8791Z" fill="white"/>
<path d="M91.31 137.71C94.59 137.71 96.72 140.15 96.72 143.16C96.72 143.51 96.7 143.87 96.63 144.24H87.9C88.01 145.93 89.45 147.25 91.39 147.25C92.8 147.25 93.92 146.65 94.77 145.33L96.48 146.57C95.44 148.45 93.39 149.43 91.39 149.43C87.99 149.43 85.5 146.92 85.5 143.58C85.5 140.24 87.9 137.71 91.31 137.71ZM94.37 142.5C94.23 140.92 92.91 139.8 91.29 139.8C89.57 139.8 88.25 140.91 87.96 142.5H94.37Z" fill="white"/>
<path d="M103.999 137.71C107.279 137.71 109.409 140.15 109.409 143.16C109.409 143.51 109.389 143.87 109.319 144.24H100.589C100.699 145.93 102.139 147.25 104.079 147.25C105.489 147.25 106.609 146.65 107.459 145.33L109.169 146.57C108.129 148.45 106.079 149.43 104.079 149.43C100.679 149.43 98.1895 146.92 98.1895 143.58C98.1895 140.24 100.589 137.71 103.999 137.71ZM107.059 142.5C106.919 140.92 105.599 139.8 103.979 139.8C102.259 139.8 100.939 140.91 100.649 142.5H107.059Z" fill="white"/>
<path d="M111.68 149.19V137.94H114.01V139.48C114.64 138.25 115.71 137.71 116.94 137.71C117.82 137.71 118.49 137.99 118.49 137.99L118.24 140.12C118.11 140.07 117.61 139.86 116.87 139.86C115.63 139.86 114.01 140.52 114.01 143.06V149.19H111.68Z" fill="white"/>
<path d="M121.379 132.74C122.219 132.74 122.819 133.33 122.819 134.17C122.819 135.01 122.219 135.6 121.379 135.6C120.539 135.6 119.949 135.01 119.949 134.17C119.949 133.33 120.539 132.74 121.379 132.74ZM120.219 149.19V137.94H122.539V149.19H120.219Z" fill="white"/>
<path d="M125.619 149.19V137.94H127.949V139.36C128.329 138.79 129.389 137.71 131.409 137.71C134.499 137.71 136.129 139.63 136.129 142.36V149.19H133.809V142.85C133.809 140.99 132.789 139.91 131.039 139.91C129.289 139.91 127.929 140.99 127.929 142.85V149.19H125.609H125.619Z" fill="white"/>
<path d="M138.3 143.51C138.3 140.05 140.75 137.71 143.95 137.71C145.86 137.71 147.13 138.41 147.96 139.48V137.94H150.28V148.31C150.28 151.85 147.88 154.11 144.09 154.11C142.03 154.11 140.12 153.24 138.83 151.7L140.35 150.19C141.42 151.35 142.62 152.01 144.14 152.01C146.45 152.01 147.96 150.66 147.96 148.61V147.66C147.17 148.68 145.86 149.43 143.95 149.43C140.75 149.43 138.3 146.97 138.3 143.51ZM140.62 143.51C140.62 145.58 142.06 147.34 144.23 147.34C146.4 147.34 147.94 145.58 147.94 143.51C147.94 141.44 146.38 139.8 144.23 139.8C142.08 139.8 140.62 141.44 140.62 143.51Z" fill="white"/>
<path d="M46.0993 63.8198L36.0293 76.1598L46.0493 88.5498L56.1193 76.2098L46.0993 63.8198Z" fill="#4A13D3"/>
<path d="M35.3298 63.79L25.2598 76.13L35.2798 88.52L45.3498 76.18L35.3298 63.79Z" fill="white"/>
</g>
<defs>
<clipPath id="clip0_4744_70525">
<rect width="400" height="225" fill="white"/>
</clipPath>
</defs>
</svg>
